<svg width="38" height="38" viewBox="0 0 38 38" fill="none" xmlns="http://www.w3.org/2000/svg">
<path d="M13.7958 1.88684C13.4238 1.88684 13.06 1.99717 12.7507 2.20389C12.4413 2.4106 12.2002 2.70441 12.0578 3.04817C11.9154 3.39192 11.8781 3.77018 11.9507 4.1351C12.0233 4.50003 12.2025 4.83524 12.4656 5.09833C12.7287 5.36143 13.0639 5.5406 13.4288 5.61319C13.7937 5.68578 14.172 5.64852 14.5158 5.50614C14.8595 5.36375 15.1533 5.12263 15.36 4.81326C15.5667 4.50389 15.6771 4.14017 15.6771 3.76809C15.6771 3.26915 15.4789 2.79065 15.1261 2.43785C14.7733 2.08504 14.2948 1.88684 13.7958 1.88684ZM13.7958 4.39517C13.6718 4.39517 13.5506 4.3584 13.4474 4.28949C13.3443 4.22059 13.2639 4.12265 13.2165 4.00806C13.169 3.89348 13.1566 3.76739 13.1808 3.64575C13.205 3.52411 13.2647 3.41237 13.3524 3.32468C13.4401 3.23698 13.5519 3.17725 13.6735 3.15306C13.7951 3.12886 13.9212 3.14128 14.0358 3.18874C14.1504 3.2362 14.2483 3.31658 14.3172 3.4197C14.3861 3.52282 14.4229 3.64406 14.4229 3.76809C14.4229 3.9344 14.3568 4.0939 14.2392 4.2115C14.1216 4.32911 13.9621 4.39517 13.7958 4.39517Z" fill="#4F4C4C"/>
<path d="M5.64375 19.4452H8.15209V20.6994H5.64375V19.4452Z" fill="#4F4C4C"/>
<path d="M9.40625 19.4452H18.8125V20.6994H9.40625V19.4452Z" fill="#4F4C4C"/>
<path d="M5.64375 23.2078H8.15209V24.4619H5.64375V23.2078Z" fill="#4F4C4C"/>
<path d="M5.64375 26.9702H8.15209V28.2244H5.64375V26.9702Z" fill="#4F4C4C"/>
<path d="M5.64375 30.7327H8.15209V31.9868H5.64375V30.7327Z" fill="#4F4C4C"/>
<path d="M36.9979 20.6993H36.3708C34.3364 20.6943 32.3577 20.0347 30.7271 18.8181L29.2221 17.6893C29.114 17.607 28.9818 17.5623 28.8458 17.5623C28.7099 17.5623 28.5777 17.607 28.4696 17.6893L27.5917 18.3478V5.64934C27.5902 5.15086 27.3915 4.67322 27.039 4.32074C26.6865 3.96826 26.2089 3.76958 25.7104 3.76809H20.5809C20.4507 3.40266 20.2111 3.08621 19.8947 2.8618C19.5783 2.63739 19.2004 2.51592 18.8125 2.51393H17.3451C17.0866 1.779 16.6063 1.14245 15.9705 0.692145C15.3348 0.241843 14.5749 0 13.7958 0C13.0168 0 12.2569 0.241843 11.6211 0.692145C10.9854 1.14245 10.5051 1.779 10.2465 2.51393H8.77917C8.39125 2.51592 8.01338 2.63739 7.69696 2.8618C7.38054 3.08621 7.14095 3.40266 7.01079 3.76809H1.88125C1.38277 3.76958 0.905131 3.96826 0.55265 4.32074C0.200169 4.67322 0.00148875 5.15086 0 5.64934V35.7493C0.00148875 36.2478 0.200169 36.7255 0.55265 37.0779C0.905131 37.4304 1.38277 37.6291 1.88125 37.6306H25.7104C25.9944 37.6288 26.2744 37.563 26.5295 37.4381C26.7846 37.3133 27.0083 37.1326 27.1841 36.9094L28.5762 37.5679C28.6601 37.6091 28.7523 37.6306 28.8458 37.6306C28.9393 37.6306 29.0316 37.6091 29.1155 37.5679L34.6213 34.9529C35.5294 34.4754 36.2894 33.7583 36.8189 32.8795C37.3484 32.0007 37.6272 30.9936 37.625 29.9676V21.3264C37.625 21.1601 37.5589 21.0006 37.4413 20.883C37.3237 20.7654 37.1642 20.6993 36.9979 20.6993ZM20.6938 5.02226H25.7104C25.8767 5.02226 26.0362 5.08833 26.1538 5.20593C26.2714 5.32353 26.3375 5.48303 26.3375 5.64934V19.2508C25.9363 19.501 25.5171 19.7211 25.0833 19.9092V6.90351C25.0833 6.7372 25.0173 6.5777 24.8997 6.46009C24.7821 6.34249 24.6226 6.27643 24.4563 6.27643H20.6938V5.02226ZM8.15208 4.39518C8.15208 4.22886 8.21815 4.06936 8.33575 3.95176C8.45335 3.83416 8.61285 3.76809 8.77917 3.76809H10.7231C10.8681 3.76957 11.0089 3.72018 11.1212 3.62851C11.2335 3.53685 11.3101 3.40873 11.3377 3.26643C11.4528 2.6994 11.7604 2.18961 12.2084 1.82344C12.6564 1.45728 13.2172 1.25725 13.7958 1.25725C14.3744 1.25725 14.9352 1.45728 15.3832 1.82344C15.8312 2.18961 16.1389 2.6994 16.254 3.26643C16.2816 3.40873 16.3582 3.53685 16.4705 3.62851C16.5827 3.72018 16.7236 3.76957 16.8685 3.76809H18.8125C18.9788 3.76809 19.1383 3.83416 19.2559 3.95176C19.3735 4.06936 19.4396 4.22886 19.4396 4.39518V6.90351H8.15208V4.39518ZM7.525 8.15768H20.0667C20.233 8.15768 20.3925 8.09161 20.5101 7.97401C20.6277 7.85641 20.6938 7.69691 20.6938 7.53059H23.8292V20.3482C23.0127 20.5776 22.1689 20.6957 21.3208 20.6993H20.6938C20.5274 20.6993 20.3679 20.7654 20.2503 20.883C20.1327 21.0006 20.0667 21.1601 20.0667 21.3264V23.2077H9.40625V24.4618H20.0667V26.9702H9.40625V28.2243H20.0667V29.9676C20.0676 30.2234 20.0843 30.4789 20.1168 30.7327H9.40625V31.9868H20.4492C20.7197 32.6871 21.1269 33.3266 21.6469 33.8681H3.7625V7.53059H6.89792C6.89792 7.69691 6.96398 7.85641 7.08159 7.97401C7.19919 8.09161 7.35869 8.15768 7.525 8.15768ZM25.7104 36.3764H1.88125C1.71494 36.3764 1.55544 36.3104 1.43784 36.1928C1.32023 36.0752 1.25417 35.9157 1.25417 35.7493V5.64934C1.25417 5.48303 1.32023 5.32353 1.43784 5.20593C1.55544 5.08833 1.71494 5.02226 1.88125 5.02226H6.89792V6.27643H3.13542C2.9691 6.27643 2.8096 6.34249 2.692 6.46009C2.5744 6.5777 2.50833 6.7372 2.50833 6.90351V34.4952C2.50833 34.6615 2.5744 34.821 2.692 34.9386C2.8096 35.0562 2.9691 35.1223 3.13542 35.1223H23.4278L25.9487 36.32C25.8737 36.3542 25.7928 36.3733 25.7104 36.3764ZM36.3708 29.9676C36.3731 30.7611 36.1589 31.5402 35.7511 32.2209C35.3434 32.9016 34.7576 33.4581 34.0569 33.8305L28.8458 36.3074L23.6473 33.8367C22.9443 33.4644 22.3562 32.9073 21.9463 32.2256C21.5364 31.5438 21.3201 30.7631 21.3208 29.9676V21.9535C23.6267 21.949 25.8697 21.2013 27.7171 19.8214L28.8458 18.9749L29.9746 19.8214C31.822 21.2013 34.065 21.949 36.3708 21.9535V29.9676Z" fill="#4F4C4C"/>
<path d="M17.5583 11.9202H15.6771V10.0389C15.6771 9.87264 15.611 9.71313 15.4934 9.59553C15.3758 9.47793 15.2163 9.41187 15.05 9.41187H12.5417C12.3754 9.41187 12.2159 9.47793 12.0983 9.59553C11.9807 9.71313 11.9146 9.87264 11.9146 10.0389V11.9202H10.0333C9.86702 11.9202 9.70752 11.9863 9.58992 12.1039C9.47232 12.2215 9.40625 12.381 9.40625 12.5473V15.0556C9.40625 15.2219 9.47232 15.3814 9.58992 15.499C9.70752 15.6166 9.86702 15.6827 10.0333 15.6827H11.9146V17.5639C11.9146 17.7303 11.9807 17.8898 12.0983 18.0074C12.2159 18.125 12.3754 18.191 12.5417 18.191H15.05C15.2163 18.191 15.3758 18.125 15.4934 18.0074C15.611 17.8898 15.6771 17.7303 15.6771 17.5639V15.6827H17.5583C17.7246 15.6827 17.8841 15.6166 18.0017 15.499C18.1194 15.3814 18.1854 15.2219 18.1854 15.0556V12.5473C18.1854 12.381 18.1194 12.2215 18.0017 12.1039C17.8841 11.9863 17.7246 11.9202 17.5583 11.9202ZM16.9313 14.4285H15.05C14.8837 14.4285 14.7242 14.4946 14.6066 14.6122C14.489 14.7298 14.4229 14.8893 14.4229 15.0556V16.9369H13.1688V15.0556C13.1688 14.8893 13.1027 14.7298 12.9851 14.6122C12.8675 14.4946 12.708 14.4285 12.5417 14.4285H10.6604V13.1744H12.5417C12.708 13.1744 12.8675 13.1083 12.9851 12.9907C13.1027 12.8731 13.1688 12.7136 13.1688 12.5473V10.666H14.4229V12.5473C14.4229 12.7136 14.489 12.8731 14.6066 12.9907C14.7242 13.1083 14.8837 13.1744 15.05 13.1744H16.9313V14.4285Z" fill="#4F4C4C"/>
<path d="M34.5837 23.0697C32.6388 22.7744 30.7971 22.0033 29.2221 20.8248C29.114 20.7424 28.9818 20.6978 28.8458 20.6978C28.7099 20.6978 28.5777 20.7424 28.4696 20.8248C26.8946 22.0033 25.0528 22.7744 23.108 23.0697C22.96 23.0932 22.8251 23.1685 22.7275 23.2822C22.6299 23.396 22.5758 23.5407 22.575 23.6905V29.9676C22.5752 30.5273 22.7254 31.0767 23.0099 31.5586C23.2945 32.0406 23.7029 32.4375 24.1929 32.708L24.2305 32.7268L28.5762 34.7899C28.6601 34.8311 28.7523 34.8526 28.8458 34.8526C28.9393 34.8526 29.0316 34.8311 29.1155 34.7899L33.4988 32.708C33.9882 32.4368 34.3963 32.0398 34.6807 31.558C34.9652 31.0762 35.1157 30.5271 35.1167 29.9676V23.6905C35.1158 23.5407 35.0618 23.396 34.9642 23.2822C34.8665 23.1685 34.7317 23.0932 34.5837 23.0697ZM33.8625 29.9676C33.8643 30.2975 33.778 30.6219 33.6127 30.9074C33.4473 31.1929 33.2089 31.4291 32.9219 31.5918L28.8458 33.5295L24.7823 31.6043C24.4929 31.4402 24.2522 31.2022 24.0848 30.9147C23.9173 30.6272 23.8291 30.3004 23.8292 29.9676V24.2173C25.6302 23.8661 27.3386 23.1443 28.8458 22.0977C30.3531 23.1443 32.0614 23.8661 33.8625 24.2173V29.9676Z" fill="#4F4C4C"/>
<path d="M26.1538 28.4081L25.2671 29.2948L27.1483 31.1761C27.2659 31.2936 27.4254 31.3597 27.5917 31.3597C27.758 31.3597 27.9174 31.2936 28.035 31.1761L33.0517 26.1594L32.165 25.2727L27.5917 29.846L26.1538 28.4081Z" fill="#4F4C4C"/>
</svg>
