<svg width="998" height="591" viewBox="0 0 998 591" fill="none" xmlns="http://www.w3.org/2000/svg">
<path d="M1113 0H-152V591H1113V0Z" fill="white"/>
<g opacity="0.25">
<path opacity="0.24" d="M1222.77 305.289C1229.95 268.973 1190.08 231.457 1146.7 220.803C1103.31 210.133 1059 219.565 1018.81 231.826C978.603 244.072 938.837 259.32 895.003 260.422C804.27 262.689 721.317 205.338 650.948 150.148C580.58 94.9586 502.889 34.6541 411.43 28.3068C339.724 23.3407 275.629 53.1798 206.879 64.7948C86.8694 85.0782 -51.1924 45.0973 -141.073 -36.0088" stroke="#082A58" stroke-width="0.867" stroke-miterlimit="10"/>
<path opacity="0.24" d="M1222.97 315.352C1230.17 279.092 1190.69 241.563 1147.51 230.552C1143.65 229.561 1139.77 228.751 1135.89 228.056C1096.39 221.16 1056.38 229.533 1019.71 240.295C1012.63 242.37 1005.56 244.541 998.489 246.705C965.3 256.899 931.857 267.109 895.755 267.851C884.236 268.086 872.61 267.382 861.035 265.748C783.881 254.974 713.354 205.204 652.551 156.844C648.136 153.324 643.693 149.794 639.223 146.255C573.045 93.8665 500.691 40.9398 416.175 32.4018C392.054 30.0367 368.004 30.7904 344.855 34.6369C317.076 39.0925 290 47.3888 263.295 55.2768C245.061 60.66 226.895 65.8621 208.275 69.708C199.521 71.5155 190.645 72.9911 181.647 74.1347C124.366 81.3956 62.5864 74.3932 5.2608 55.6445C-52.2021 36.8486 -105.3 6.49168 -147.875 -32.5587" stroke="#082A58" stroke-width="0.867" stroke-miterlimit="10"/>
<path opacity="0.24" d="M1223.16 325.414C1230.4 289.188 1191.32 251.663 1148.32 240.296C1144.47 239.281 1140.61 238.42 1136.74 237.712C1097.39 230.495 1057.37 238.425 1020.59 248.776C1013.5 250.783 1006.42 252.871 999.337 254.969C966.083 264.817 932.566 274.74 896.504 275.315C884.986 275.499 873.368 274.754 861.805 273.091C784.666 262.065 714.436 212.224 654.13 163.582C649.751 160.049 645.34 156.49 640.921 152.934C575.374 100.233 504.209 47.594 420.864 36.5694C396.512 33.3403 372.469 32.8848 348.201 36.2955C319.516 40.3222 291.691 49.3404 264.816 58.1498C246.475 64.1572 228.341 70.1084 209.662 74.6595C200.864 76.7955 191.958 78.6013 182.854 80.0328C124.91 89.1538 60.8153 82.4003 1.88858 62.8597C-57.3056 43.1291 -111.139 11.5048 -154.675 -29.1141" stroke="#082A58" stroke-width="0.867" stroke-miterlimit="10"/>
<path opacity="0.24" d="M1223.37 335.468C1230.64 299.299 1191.97 261.756 1149.15 250.053C1145.33 249.009 1141.49 248.116 1137.63 247.373C1098.39 239.825 1058.37 247.306 1021.51 257.262C1014.4 259.188 1007.29 261.201 1000.2 263.22C966.881 272.721 933.309 282.353 897.267 282.766C885.761 282.901 874.161 282.119 862.618 280.43C785.526 269.164 715.572 219.255 655.75 170.315C651.399 166.754 647.037 163.184 642.664 159.605C577.742 106.578 507.715 54.1847 425.605 40.7097C401.046 36.6812 376.619 34.9055 351.591 37.9512C321.99 41.5329 293.426 51.2884 266.389 61.0333C247.923 67.6715 229.849 74.3802 211.101 79.6205C202.286 82.0942 193.309 84.2189 184.111 85.9358C125.509 96.9174 59.1055 90.4274 -1.42265 70.0954C-62.0788 49.732 -117.156 16.2389 -161.427 -25.6412" stroke="#082A58" stroke-width="0.867" stroke-miterlimit="10"/>
<path opacity="0.24" d="M1223.57 345.545C1230.86 309.416 1192.59 271.872 1149.98 259.809C1146.16 258.727 1142.35 257.816 1138.51 257.033C1099.41 249.148 1059.38 256.202 1022.42 265.764C1015.3 267.603 1008.19 269.552 1001.06 271.508C967.677 280.663 934.023 289.994 898.011 290.262C886.513 290.347 874.927 289.521 863.402 287.797C786.337 276.293 716.687 226.294 657.325 177.083C653.009 173.507 648.679 169.905 644.346 166.3C580.054 112.961 511.117 60.6931 430.292 44.8881C405.535 40.0383 380.687 36.9558 354.926 39.646C324.394 42.79 295.108 53.2761 267.904 63.9392C249.339 71.2171 231.289 78.6587 212.462 84.6089C203.621 87.4047 194.572 89.8471 185.275 91.874C126.025 104.731 57.2927 98.4727 -4.82638 77.3651C-67.0742 56.2263 -123.145 21.1583 -168.273 -22.132" stroke="#082A58" stroke-width="0.867" stroke-miterlimit="10"/>
<path opacity="0.24" d="M1223.77 355.605C1231.1 319.526 1193.2 281.956 1150.8 269.549C1147 268.438 1143.19 267.483 1139.36 266.684C1100.4 258.461 1060.37 265.09 1023.31 274.241C1016.16 276.01 1009.04 277.888 1001.91 279.765C968.457 288.575 934.73 297.623 898.757 297.721C887.262 297.758 875.685 296.893 864.172 295.137C787.124 283.381 717.776 233.326 658.9 183.818C654.613 180.216 650.345 176.608 646.041 172.977C582.382 119.327 514.506 67.0984 434.981 49.0341C409.98 43.3601 384.786 38.9841 358.274 41.2858C326.835 44.0008 296.801 55.2083 269.405 66.7987C250.715 74.7065 232.697 82.8959 213.829 89.5434C204.925 92.6932 195.791 95.4322 186.462 97.7495C126.555 112.466 55.5168 106.473 -8.20429 84.5721C-72.0363 62.6367 -129.108 26.0154 -175.091 -18.6842" stroke="#082A58" stroke-width="0.867" stroke-miterlimit="10"/>
<path opacity="0.24" d="M1223.96 365.664C1231.31 329.624 1193.83 292.046 1151.6 279.296C1147.83 278.156 1144.02 277.168 1140.22 276.333C1101.38 267.796 1061.35 273.96 1024.22 282.728C1017.06 284.427 1009.92 286.209 1002.77 288.016C969.265 296.495 935.472 305.235 899.521 305.175C888.032 305.152 876.469 304.242 864.972 302.457C787.95 290.466 718.886 240.323 660.506 190.533C656.256 186.919 652.009 183.285 647.764 179.631C584.737 125.67 517.872 73.4003 439.706 53.1748C414.469 46.654 388.909 40.9916 361.648 42.9452C329.295 45.2165 298.522 57.1604 270.965 69.6851C252.168 78.2161 234.182 87.153 215.254 94.5048C206.319 97.999 197.117 101.056 187.691 103.661C127.126 120.236 53.7689 114.488 -11.5404 91.8141C-76.9591 69.1025 -135.028 30.9088 -181.866 -15.2001" stroke="#082A58" stroke-width="0.867" stroke-miterlimit="10"/>
<path opacity="0.24" d="M1224.17 375.714C1231.57 339.727 1194.46 302.138 1152.44 289.04C1148.68 287.878 1144.9 286.86 1141.1 285.988C1102.4 277.114 1062.36 282.852 1025.13 291.21C1017.96 292.828 1010.79 294.55 1003.64 296.279C970.051 304.42 936.193 312.853 900.289 312.638C888.81 312.572 877.26 311.62 865.782 309.793C788.791 297.571 720.018 247.357 662.121 197.266C657.916 193.617 653.709 189.963 649.499 186.304C587.103 132.031 521.256 79.6204 444.434 57.3173C418.942 49.919 393.046 43.018 365.018 44.5907C331.747 46.4189 300.239 59.0979 272.511 72.5416C253.585 81.7037 235.653 91.3801 216.647 99.4413C207.682 103.269 198.42 106.641 188.905 109.54C127.693 127.987 52.0191 122.487 -14.8888 99.0211C-81.9069 75.5192 -140.959 35.7675 -188.635 -11.7563" stroke="#082A58" stroke-width="0.867" stroke-miterlimit="10"/>
<path opacity="0.24" d="M1224.38 385.786C1231.79 349.854 1195.1 312.245 1153.25 298.798C1149.51 297.589 1145.74 296.551 1141.96 295.65C1103.38 286.446 1063.36 291.729 1026.02 299.7C1018.82 301.233 1011.65 302.875 1004.49 304.533C970.827 312.327 936.896 320.477 901.032 320.098C889.559 319.986 878.022 318.999 866.557 317.15C789.598 304.665 721.104 254.385 663.7 204.014C659.534 200.353 655.363 196.673 651.186 192.974C589.438 138.384 524.581 85.7837 449.12 61.4753C423.365 53.1827 397.114 45.0519 368.373 46.2628C334.201 47.6621 301.943 61.0624 274.044 75.4239C255.015 85.2073 237.12 95.6485 218.055 104.413C209.063 108.574 199.74 112.261 190.134 115.453C128.265 135.757 50.294 130.497 -18.2199 106.265C-86.8268 81.9891 -146.885 40.6504 -195.403 -8.26724" stroke="#082A58" stroke-width="0.867" stroke-miterlimit="10"/>
<path opacity="0.24" d="M1224.57 395.844C1232.03 359.942 1195.71 322.344 1154.07 308.536C1150.34 307.306 1146.59 306.224 1142.83 305.291C1104.39 295.767 1064.37 300.608 1026.93 308.186C1019.71 309.648 1012.52 311.219 1005.34 312.806C971.613 320.257 937.624 328.115 901.783 327.574C890.318 327.411 878.794 326.381 867.346 324.496C790.413 311.775 722.21 261.424 665.274 210.761C661.143 207.088 657.012 203.376 652.88 199.664C591.763 144.761 527.9 91.8723 453.812 65.6518C427.802 56.4435 401.206 47.0977 371.706 47.9445C336.623 48.899 303.615 63.0204 275.537 78.3227C256.391 88.7517 238.537 99.9165 219.394 109.39C210.374 113.895 200.984 117.898 191.276 121.378C128.759 143.554 48.4742 138.541 -21.6387 113.519C-91.8337 88.4687 -152.901 45.5623 -202.258 -4.76856" stroke="#082A58" stroke-width="0.867" stroke-miterlimit="10"/>
<path opacity="0.24" d="M1224.76 405.9C1232.25 370.053 1196.32 332.418 1154.89 318.285C1151.19 317.027 1147.46 315.916 1143.69 314.951C1105.37 305.096 1065.35 309.491 1027.81 316.675C1020.6 318.061 1013.39 319.561 1006.19 321.077C972.407 328.198 938.326 335.74 902.532 335.049C891.075 334.839 879.565 333.766 868.134 331.842C791.228 318.887 723.317 268.463 666.865 217.5C662.762 213.798 658.67 210.079 654.59 206.343C594.101 151.131 531.232 97.8742 458.509 69.8036C432.233 59.6635 405.312 49.136 375.05 49.6194C339.051 50.1313 305.307 64.988 277.069 81.2235C257.799 92.2815 239.995 104.186 220.792 114.362C211.746 119.199 202.295 123.517 192.495 127.291C129.323 151.324 46.7219 146.555 -24.9883 120.743C-96.7815 94.9065 -158.83 50.4412 -209.042 -1.29417" stroke="#082A58" stroke-width="0.867" stroke-miterlimit="10"/>
<path opacity="0.24" d="M1224.98 415.947C1232.5 380.134 1196.97 342.5 1155.71 328.019C1152.02 326.716 1148.31 325.572 1144.56 324.588C1106.38 314.397 1066.35 318.366 1028.74 325.151C1021.51 326.462 1014.27 327.878 1007.07 329.317C973.218 336.094 939.065 343.351 903.292 342.499C891.837 342.237 880.335 341.124 868.916 339.172C792.026 325.965 724.425 275.463 668.449 224.225C664.378 220.512 660.333 216.752 656.283 212.992C596.426 157.467 534.582 103.794 463.196 73.9416C436.665 62.8477 409.399 51.1457 378.401 51.257C341.498 51.3417 307.007 66.9175 278.599 84.0704C259.221 95.7504 241.449 108.401 222.186 119.28C213.115 124.458 203.597 129.093 193.692 133.155C129.862 159.041 44.9491 154.521 -28.3484 127.936C-101.729 101.322 -164.771 55.2885 -215.837 2.14316" stroke="#082A58" stroke-width="0.867" stroke-miterlimit="10"/>
<path opacity="0.24" d="M1225.18 426.017C1232.73 390.259 1197.59 352.611 1156.53 337.768C1152.86 336.442 1149.15 335.264 1145.42 334.233C1107.36 323.707 1067.32 327.233 1029.62 333.626C1022.36 334.853 1015.13 336.205 1007.91 337.573C973.994 344.005 939.783 350.972 904.031 349.959C892.584 349.646 881.095 348.489 869.692 346.502C792.828 333.059 725.519 282.485 670.023 230.949C665.983 227.207 661.968 223.442 657.976 219.657C598.738 163.802 537.946 109.646 467.874 78.0801C441.077 66.0167 413.469 53.1788 381.731 52.9201C343.916 52.5622 308.688 68.8725 280.09 86.9489C260.587 99.2574 242.854 112.671 223.525 124.235C214.429 129.744 204.85 134.694 194.852 139.051C130.375 166.806 43.1477 162.534 -31.7445 135.158C-106.721 107.756 -170.747 60.1676 -222.649 5.60921" stroke="#082A58" stroke-width="0.867" stroke-miterlimit="10"/>
<path opacity="0.24" d="M1225.38 436.07C1232.96 400.345 1198.21 362.698 1157.33 347.506C1153.68 346.152 1149.99 344.941 1146.27 343.874C1108.34 333.034 1068.3 336.114 1030.51 342.114C1023.23 343.27 1015.99 344.529 1008.76 345.843C974.775 351.933 940.481 358.599 904.775 357.434C893.337 357.075 881.861 355.876 870.475 353.851C793.655 340.167 726.608 289.512 671.609 237.692C667.625 233.93 663.639 230.13 659.681 226.339C601.072 170.174 541.346 115.486 472.552 82.2591C445.516 69.1974 417.547 55.2303 385.052 54.6079C346.323 53.8063 310.359 70.8519 281.601 89.8615C262 102.807 244.292 116.951 224.9 129.217C215.775 135.05 206.136 140.314 196.048 144.972C130.915 174.58 41.3776 170.554 -35.1024 142.406C-111.662 114.226 -176.678 65.0702 -229.433 9.10458" stroke="#082A58" stroke-width="0.867" stroke-miterlimit="10"/>
<path opacity="0.24" d="M1225.59 446.116C1233.2 410.446 1198.86 372.777 1158.17 357.247C1154.55 355.862 1150.86 354.622 1147.16 353.519C1109.37 342.342 1069.32 344.982 1031.43 350.589C1024.15 351.669 1016.87 352.862 1009.62 354.089C975.558 359.855 941.201 366.216 905.534 364.885C894.103 364.471 882.641 363.236 871.268 361.195C794.473 347.277 727.72 296.547 673.185 244.436C669.228 240.646 665.279 236.833 661.373 233.025C603.393 176.548 544.747 121.267 477.226 86.419C449.939 72.3435 421.63 57.2797 388.396 56.2876C348.764 55.06 312.071 72.8173 283.125 92.7495C263.402 106.325 245.741 121.206 226.271 134.18C217.124 140.354 207.417 145.936 197.223 150.883C131.429 182.345 39.5961 178.579 -38.4817 149.643C-116.641 120.678 -182.642 69.9639 -236.254 12.5914" stroke="#082A58" stroke-width="0.867" stroke-miterlimit="10"/>
<path opacity="0.24" d="M1225.79 456.168C1233.43 420.529 1199.47 382.869 1158.99 366.977C1155.37 365.555 1151.71 364.283 1148.02 363.159C1110.34 351.653 1070.3 353.861 1032.33 359.055C1025.03 360.063 1017.75 361.18 1010.47 362.335C976.351 367.757 941.937 373.829 906.29 372.337C894.868 371.876 883.418 370.599 872.062 368.52C795.284 354.35 728.822 303.548 674.78 251.156C670.859 247.353 666.959 243.524 663.079 239.668C605.727 182.88 548.207 126.95 481.921 90.5537C454.423 75.4516 425.727 59.2892 391.735 57.933C351.192 56.2627 313.762 74.7542 284.645 95.6028C264.811 109.797 247.185 125.425 227.656 139.101C218.485 145.604 208.718 151.499 198.428 156.742C131.987 190.071 37.8333 186.537 -41.8285 156.828C-121.574 127.09 -188.565 74.8085 -243.028 16.033" stroke="#082A58" stroke-width="0.867" stroke-miterlimit="10"/>
<path opacity="0.24" d="M1225.99 466.234C1233.66 430.652 1200.1 392.953 1159.79 376.729C1156.2 375.278 1152.56 373.973 1148.88 372.815C1111.33 360.973 1071.29 362.757 1033.22 367.558C1025.89 368.48 1018.6 369.526 1011.32 370.604C977.132 375.682 942.634 381.455 907.035 379.813C895.621 379.3 884.184 377.981 872.845 375.867C796.093 361.462 729.921 310.587 676.361 257.895C672.471 254.065 668.61 250.216 664.778 246.347C608.054 189.247 551.683 132.659 486.597 94.7067C458.895 78.556 429.795 61.3396 395.064 59.6134C353.609 57.5004 315.443 76.7265 286.137 98.4971C266.178 113.32 248.611 129.702 229.012 144.063C219.826 150.902 209.998 157.111 199.605 162.643C132.508 197.824 36.0546 194.55 -45.2025 164.053C-126.542 133.527 -194.515 79.6927 -249.832 19.5121" stroke="#082A58" stroke-width="0.867" stroke-miterlimit="10"/>
<path opacity="0.24" d="M1226.18 476.285C1233.87 440.74 1200.72 403.036 1160.62 386.473C1157.03 385 1153.41 383.656 1149.74 382.47C1112.33 370.308 1072.27 371.637 1034.11 376.046C1026.76 376.897 1019.46 377.866 1012.17 378.874C977.914 383.607 943.342 389.098 907.781 387.288C896.37 386.73 884.941 385.37 873.613 383.22C796.886 368.58 731.004 317.632 677.926 264.641C674.069 260.798 670.255 256.916 666.466 253.033C610.368 195.62 555.201 138.336 491.271 98.8868C463.374 81.6646 433.87 63.3958 398.414 61.3145C356.056 58.7754 317.146 78.7184 287.678 101.421C267.612 116.865 250.076 133.991 230.399 149.06C221.185 156.229 211.289 162.755 200.795 168.585C133.05 205.632 34.2788 202.59 -48.5637 171.319C-131.488 140.021 -200.455 84.6149 -256.605 23.0261" stroke="#082A58" stroke-width="0.867" stroke-miterlimit="10"/>
<path opacity="0.24" d="M1226.4 486.328C1234.13 450.831 1201.35 413.118 1161.43 396.199C1157.87 394.684 1154.26 393.318 1150.6 392.101C1113.32 379.61 1073.27 380.507 1035.01 384.525C1027.66 385.299 1020.32 386.188 1013.04 387.135C978.713 391.524 944.086 396.725 908.525 394.759C897.122 394.147 885.708 392.744 874.395 390.564C797.702 375.667 732.093 324.652 679.505 271.378C675.675 267.507 671.894 263.618 668.16 259.712C612.691 201.989 558.727 143.966 495.941 103.042C467.867 84.743 437.95 65.4429 401.725 62.9844C358.456 60.0037 318.798 80.6647 289.171 104.298C268.99 120.386 251.476 138.24 231.77 154.018C222.535 161.516 212.58 168.356 201.988 174.481C133.569 213.386 32.5167 210.597 -51.9276 178.523C-136.437 146.454 -206.393 89.482 -263.397 26.4857" stroke="#082A58" stroke-width="0.867" stroke-miterlimit="10"/>
<path opacity="0.24" d="M1226.59 496.379C1234.35 460.92 1201.98 423.201 1162.25 405.927C1158.71 404.381 1155.11 402.994 1151.48 401.733C1114.33 388.904 1074.26 389.365 1035.91 392.991C1028.54 393.693 1021.2 394.506 1013.87 395.372C979.487 399.434 944.767 404.32 909.246 402.19C897.857 401.526 886.46 400.087 875.167 397.887C798.499 382.754 733.198 331.66 681.058 278.1C677.283 274.21 673.517 270.297 669.803 266.364C614.961 208.328 562.267 149.567 500.569 107.188C472.351 87.7993 441.979 67.4667 405.007 64.6603C360.826 61.2374 320.433 82.6325 290.635 107.181C270.328 123.895 252.864 142.487 233.095 158.967C223.839 166.801 213.817 173.958 203.115 180.375C134.042 221.132 30.6806 218.587 -55.3497 185.741C-141.452 152.884 -212.407 94.3671 -270.244 29.9633" stroke="#082A58" stroke-width="0.867" stroke-miterlimit="10"/>
<path opacity="0.24" d="M1226.8 506.443C1234.6 471.031 1202.61 433.297 1163.07 415.671C1159.54 414.102 1155.96 412.675 1152.33 411.389C1115.31 398.249 1075.25 398.259 1036.81 401.474C1029.42 402.09 1022.06 402.847 1014.73 403.637C980.283 407.356 945.488 411.959 910.005 409.662C898.624 408.95 887.24 407.467 875.962 405.227C799.318 389.857 734.298 338.674 682.647 284.832C678.899 280.913 675.187 276.981 671.51 273.036C617.312 214.681 565.905 155.173 505.257 111.354C476.898 90.8751 446.059 69.5323 408.358 66.3347C363.275 62.4854 322.138 84.5986 292.16 110.083C271.746 127.418 254.313 146.755 234.468 163.941C225.19 172.101 215.106 179.57 204.307 186.283C134.585 228.903 28.9189 226.606 -58.7039 192.973C-146.39 159.343 -218.346 99.2437 -277.027 33.4488" stroke="#082A58" stroke-width="0.867" stroke-miterlimit="10"/>
<path opacity="0.24" d="M1226.99 516.491C1234.81 481.118 1203.21 443.364 1163.88 425.417C1160.37 423.82 1156.79 422.348 1153.19 421.035C1116.29 407.56 1076.22 407.133 1037.7 409.969C1030.29 410.519 1022.92 411.18 1015.57 411.898C981.04 415.28 946.207 419.587 910.746 417.13C899.368 416.365 887.992 414.841 876.724 412.574C800.096 396.961 735.375 345.72 684.203 291.58C680.491 287.649 676.806 283.689 673.184 279.725C619.603 221.043 569.535 160.768 509.903 115.521C481.431 93.9234 450.106 71.5777 411.659 68.0331C365.666 63.7427 323.792 86.5884 293.643 112.988C273.104 130.95 255.73 151.04 235.815 168.91C226.518 177.398 216.374 185.183 205.477 192.193C135.099 236.662 27.1447 234.603 -62.0794 200.204C-151.359 165.788 -224.294 104.136 -283.832 36.94" stroke="#082A58" stroke-width="0.867" stroke-miterlimit="10"/>
<path opacity="0.24" d="M1227.21 526.531C1235.07 491.205 1203.85 453.44 1164.71 435.137C1161.2 433.501 1157.66 432.009 1154.08 430.661C1117.32 416.85 1077.24 415.999 1038.61 418.429C1031.2 418.897 1023.8 419.499 1016.44 420.139C981.844 423.179 946.94 427.203 911.515 424.579C900.146 423.771 888.783 422.205 877.531 419.896C800.928 404.043 736.486 352.713 685.809 298.288C682.124 294.328 678.49 290.355 674.906 286.37C621.951 227.375 573.275 166.315 514.607 119.663C486.045 96.9575 454.221 73.6151 415.009 69.6919C368.087 64.9665 325.496 88.5389 295.179 115.852C274.542 134.449 257.19 155.267 237.197 173.844C227.88 182.666 217.669 190.768 206.662 198.071C135.629 244.388 25.3768 242.59 -65.439 207.405C-156.301 172.217 -230.227 108.999 -290.595 40.3919" stroke="#082A58" stroke-width="0.867" stroke-miterlimit="10"/>
<path opacity="0.24" d="M1227.4 536.578C1235.28 501.29 1204.48 463.519 1165.51 444.868C1162.03 443.204 1158.49 441.682 1154.91 440.303C1118.26 426.163 1078.19 424.867 1039.48 426.922C1032.05 427.321 1024.65 427.818 1017.28 428.414C982.622 431.125 947.622 434.836 912.244 432.062C900.882 431.199 889.532 429.59 878.295 427.25C801.736 411.158 737.566 359.761 687.369 305.037C683.721 301.065 680.116 297.058 676.577 293.046C624.244 233.74 576.973 171.91 519.245 123.816C490.622 99.9729 458.26 75.6479 418.32 71.3716C370.498 66.2209 327.162 90.5094 296.656 118.743C275.894 137.967 258.595 159.52 238.539 178.798C229.196 187.941 218.925 196.356 207.825 203.961C136.145 252.142 23.5798 250.574 -68.8181 214.62C-161.255 178.637 -236.176 113.876 -297.399 43.8669" stroke="#082A58" stroke-width="0.867" stroke-miterlimit="10"/>
<path opacity="0.24" d="M1227.61 546.64C1235.53 511.397 1205.1 473.619 1166.34 454.621C1162.89 452.928 1159.35 451.36 1155.79 449.959C1119.29 435.5 1079.21 433.765 1040.41 435.407C1032.95 435.735 1025.53 436.157 1018.13 436.673C983.414 439.041 948.357 442.464 912.999 439.529C901.642 438.621 890.3 436.972 879.074 434.597C802.528 418.252 738.656 366.802 688.942 311.777C685.321 307.777 681.772 303.75 678.269 299.727C626.565 240.108 580.745 177.489 523.897 127.999C495.223 103.037 462.293 77.7179 421.618 73.0723C372.885 67.4801 328.816 92.5014 298.148 121.665C277.278 141.509 260.008 163.807 239.896 183.784C230.533 193.26 220.195 201.992 208.986 209.891C136.65 259.918 21.7927 258.61 -72.2017 221.868C-166.22 185.115 -242.134 118.788 -304.207 47.376" stroke="#082A58" stroke-width="0.867" stroke-miterlimit="10"/>
<path opacity="0.24" d="M1236.63 575.779C1244.57 540.576 1214.55 502.789 1175.96 483.446C1172.51 481.714 1169.01 480.135 1165.44 478.677C1129.06 463.892 1088.97 461.712 1050.08 462.963C1042.62 463.2 1035.18 463.579 1027.77 464.011C992.984 466.036 957.853 469.176 922.515 466.082C911.171 465.117 899.847 463.431 888.638 461.038C812.117 444.459 748.525 392.915 699.283 337.614C695.698 333.601 692.179 329.564 688.726 325.503C637.647 265.572 593.31 202.173 537.32 151.255C508.619 125.141 475.13 98.87 433.698 93.863C384.056 87.8303 339.251 113.583 308.415 143.66C287.421 164.129 270.191 187.186 250.009 207.845C240.625 217.646 230.227 226.691 218.92 234.888C145.937 286.779 28.7639 285.701 -66.8366 248.177C-162.437 210.653 -239.34 142.762 -302.264 69.9474" stroke="#082A58" stroke-width="0.867" stroke-miterlimit="10"/>
<path opacity="0.24" d="M1228.02 566.725C1236.01 531.569 1206.34 493.756 1167.96 474.069C1164.54 472.309 1161.05 470.689 1157.5 469.207C1121.24 454.084 1081.16 451.481 1042.17 452.342C1034.69 452.505 1027.22 452.802 1019.82 453.172C984.967 454.854 949.752 457.696 914.461 454.452C903.127 453.436 891.816 451.706 880.624 449.277C804.127 432.466 740.827 380.848 692.06 325.249C688.521 321.202 685.045 317.15 681.612 313.063C631.158 252.82 588.33 188.65 533.18 136.312C504.462 109.062 470.392 81.8084 428.222 76.4326C377.677 69.976 332.13 96.4446 301.123 127.435C280.021 148.523 262.823 172.324 242.581 193.681C233.18 203.808 222.721 213.167 211.314 221.661C137.675 275.396 18.1988 274.564 -78.9825 236.27C-176.175 197.96 -254.057 128.519 -317.832 54.303" stroke="#082A58" stroke-width="0.867" stroke-miterlimit="10"/>
<path opacity="0.24" d="M1228.22 576.771C1236.22 541.652 1206.97 503.833 1168.78 483.791C1165.36 482.009 1161.89 480.349 1158.37 478.834C1122.24 463.398 1082.15 460.35 1043.06 460.805C1035.56 460.899 1028.1 461.118 1020.67 461.4C985.744 462.74 950.475 465.294 915.203 461.891C903.872 460.83 892.568 459.06 881.385 456.598C804.911 439.549 741.906 387.835 693.612 331.959C690.109 327.899 686.665 323.817 683.282 319.713C633.454 259.158 592.178 194.221 537.815 140.442C509.117 112.048 474.42 83.8437 431.513 78.0985C380.062 71.1998 333.768 98.3857 302.591 130.327C281.374 152.058 264.215 176.577 243.897 198.641C234.476 209.099 223.951 218.775 212.434 227.564C138.141 283.146 16.3711 282.575 -82.4013 243.494C-181.174 204.414 -260.046 133.408 -324.672 57.7906" stroke="#082A58" stroke-width="0.867" stroke-miterlimit="10"/>
<path opacity="0.24" d="M1228.42 586.829C1236.47 551.758 1207.6 513.923 1169.59 493.549C1166.2 491.739 1162.74 490.056 1159.22 488.503C1123.22 472.733 1083.12 469.246 1043.94 469.326C1036.42 469.351 1028.93 469.482 1021.51 469.704C986.511 470.722 951.175 472.974 915.94 469.404C904.618 468.288 893.328 466.476 882.159 463.983C805.72 446.677 742.997 394.914 695.181 338.737C691.705 334.649 688.301 330.546 684.969 326.431C635.764 265.562 596.069 199.869 542.475 144.657C513.798 115.117 478.485 85.9389 434.821 79.8336C382.462 72.4928 335.432 100.411 304.084 133.266C282.742 155.623 265.633 180.879 245.252 203.641C235.687 214.329 225.382 224.471 213.609 233.499C138.67 290.942 14.5886 290.601 -85.7658 250.748C-186.128 210.882 -265.979 138.329 -331.44 61.302" stroke="#082A58" stroke-width="0.867" stroke-miterlimit="10"/>
<path opacity="0.24" d="M1228.64 596.865C1236.71 561.829 1208.23 523.995 1170.42 503.262C1167.05 501.406 1163.59 499.698 1160.1 498.119C1124.24 482.014 1084.14 478.109 1044.87 477.772C1037.35 477.704 1029.84 477.781 1022.37 477.923C987.311 478.6 951.892 480.553 916.703 476.831C905.391 475.672 894.114 473.817 882.962 471.283C806.536 453.746 744.094 401.888 696.769 345.431C693.329 341.33 689.964 337.208 686.674 333.065C638.093 271.885 600.006 205.443 547.142 148.774C518.53 118.091 482.561 87.9562 438.165 81.4811C384.904 73.7169 337.134 102.35 305.616 136.117C284.166 159.092 267.088 185.091 246.657 208.568C237.047 219.581 226.717 230.042 214.834 239.361C139.238 298.648 12.8647 298.568 -89.0772 257.932C-191.019 217.297 -271.861 143.178 -338.171 64.7515" stroke="#082A58" stroke-width="0.867" stroke-miterlimit="10"/>
<path opacity="0.24" d="M1228.83 606.91C1236.93 571.928 1208.86 534.071 1171.22 512.99C1167.86 511.112 1164.43 509.354 1160.93 507.759C1125.18 491.325 1085.08 486.97 1045.73 486.265C1038.19 486.124 1030.66 486.134 1023.2 486.199C988.065 486.534 952.589 488.198 917.42 484.318C906.116 483.11 894.85 481.221 883.708 478.664C807.314 460.89 745.156 408.959 698.291 352.209C694.878 348.08 691.565 343.934 688.305 339.768C640.335 278.26 603.876 211.101 551.742 152.974C523.195 121.149 486.56 90.0414 441.411 83.2036C387.241 74.9988 338.737 104.363 307.048 139.043C285.474 162.644 268.454 189.394 247.936 213.56C238.309 224.908 227.907 235.685 215.918 245.294C139.668 306.426 10.9927 306.589 -92.5309 265.182C-196.064 223.76 -277.901 148.1 -345.044 68.2665" stroke="#082A58" stroke-width="0.867" stroke-miterlimit="10"/>
<path opacity="0.24" d="M1229.03 616.952C1237.89 578.885 1204.25 537.359 1161.8 517.381C1119.35 497.419 1070.54 494.441 1024.05 494.44C977.555 494.44 930.422 496.825 884.477 485.995C802.567 466.668 737.315 408.235 689.999 346.424C642.656 284.603 607.855 216.715 556.406 157.129C527.941 124.155 490.62 92.1012 444.732 84.8963C389.655 76.2515 340.415 106.348 308.548 141.961C276.681 177.575 254.938 220.205 217.102 251.206C140.206 314.198 9.2287 314.602 -95.8819 272.413C-200.993 230.224 -283.821 152.998 -351.814 71.7634" stroke="#082A58" stroke-width="0.867" stroke-miterlimit="10"/>
</g>
</svg>
